<svg width="1460" height="278" viewBox="0 0 1460 278" fill="none" xmlns="http://www.w3.org/2000/svg">
<path d="M-15 178.359C39.3424 116.975 192.602 10.7975 370.9 77.1584C593.773 160.11 521.545 226.47 696.955 208.221C872.364 189.972 899.191 24.0694 1014.75 63.8859C1130.32 103.702 1219.05 78.8171 1287.15 24.0694C1355.25 -30.6784 1443.99 24.0694 1481.14 63.8859C1510.85 95.7392 1547.17 126.929 1561.62 138.543" stroke="#F8F4F4" stroke-linecap="square"/>
<path d="M-11.9044 194.793C42.438 133.409 195.697 27.2313 373.996 93.5923C596.868 176.543 524.641 242.904 700.05 224.655C875.459 206.406 902.286 40.5032 1017.85 80.3198C1133.41 120.136 1222.15 95.251 1290.25 40.5032C1358.35 -14.2446 1447.09 40.5032 1484.23 80.3198C1513.95 112.173 1550.27 143.363 1564.71 154.976" stroke="#F8F4F4" stroke-linecap="square"/>
<path d="M-8.80859 211.227C45.5338 149.843 198.793 43.6652 377.091 110.026C599.964 192.977 527.737 259.338 703.146 241.089C878.555 222.839 905.382 56.937 1020.95 96.7536C1136.51 136.57 1225.25 111.685 1293.35 56.937C1361.45 2.18927 1450.18 56.937 1487.33 96.7536C1517.04 128.607 1553.36 159.797 1567.81 171.41" stroke="#F8F4F4" stroke-linecap="square"/>
<path d="M-5.71289 227.661C48.6295 166.277 201.889 60.0993 380.187 126.46C603.06 209.411 530.833 275.772 706.242 257.523C881.651 239.273 908.478 73.3711 1024.04 113.188C1139.61 153.004 1228.34 128.119 1296.44 73.3711C1364.54 18.6234 1453.28 73.3711 1490.42 113.188C1520.14 145.041 1556.46 176.231 1570.91 187.844" stroke="#F8F4F4" stroke-linecap="square"/>
<path d="M-2.61719 244.094C51.7252 182.711 204.985 76.5331 383.283 142.894C606.156 225.845 533.928 292.206 709.337 273.957C884.746 255.707 911.574 89.805 1027.14 129.622C1142.7 169.438 1231.44 144.553 1299.54 89.805C1367.64 35.0572 1456.37 89.805 1493.52 129.622C1523.24 161.475 1559.56 192.665 1574 204.278" stroke="#F8F4F4" stroke-linecap="square"/>
</svg>
